<svg xmlns="http://www.w3.org/2000/svg" viewBox="0 0 45 45" width="360" height="360" shape-rendering="crispEdges" role="img" aria-label="QR code linking to the free estimate form"><rect width="45" height="45" fill="#f5f1eb"/><g fill="#20252a"><rect x="4" y="4" width="7" height="1"/><rect x="12" y="4" width="1" height="1"/><rect x="15" y="4" width="2" height="1"/><rect x="19" y="4" width="2" height="1"/><rect x="25" y="4" width="3" height="1"/><rect x="30" y="4" width="2" height="1"/><rect x="34" y="4" width="7" height="1"/><rect x="4" y="5" width="1" height="1"/><rect x="10" y="5" width="1" height="1"/><rect x="12" y="5" width="1" height="1"/><rect x="17" y="5" width="2" height="1"/><rect x="20" y="5" width="1" height="1"/><rect x="26" y="5" width="1" height="1"/><rect x="29" y="5" width="1" height="1"/><rect x="31" y="5" width="1" height="1"/><rect x="34" y="5" width="1" height="1"/><rect x="40" y="5" width="1" height="1"/><rect x="4" y="6" width="1" height="1"/><rect x="6" y="6" width="3" height="1"/><rect x="10" y="6" width="1" height="1"/><rect x="13" y="6" width="3" height="1"/><rect x="17" y="6" width="2" height="1"/><rect x="21" y="6" width="2" height="1"/><rect x="27" y="6" width="2" height="1"/><rect x="30" y="6" width="2" height="1"/><rect x="34" y="6" width="1" height="1"/><rect x="36" y="6" width="3" height="1"/><rect x="40" y="6" width="1" height="1"/><rect x="4" y="7" width="1" height="1"/><rect x="6" y="7" width="3" height="1"/><rect x="10" y="7" width="1" height="1"/><rect x="12" y="7" width="3" height="1"/><rect x="16" y="7" width="1" height="1"/><rect x="19" y="7" width="2" height="1"/><rect x="22" y="7" width="1" height="1"/><rect x="24" y="7" width="2" height="1"/><rect x="27" y="7" width="2" height="1"/><rect x="30" y="7" width="1" height="1"/><rect x="34" y="7" width="1" height="1"/><rect x="36" y="7" width="3" height="1"/><rect x="40" y="7" width="1" height="1"/><rect x="4" y="8" width="1" height="1"/><rect x="6" y="8" width="3" height="1"/><rect x="10" y="8" width="1" height="1"/><rect x="12" y="8" width="1" height="1"/><rect x="14" y="8" width="2" height="1"/><rect x="17" y="8" width="1" height="1"/><rect x="19" y="8" width="1" height="1"/><rect x="21" y="8" width="3" height="1"/><rect x="26" y="8" width="2" height="1"/><rect x="29" y="8" width="3" height="1"/><rect x="34" y="8" width="1" height="1"/><rect x="36" y="8" width="3" height="1"/><rect x="40" y="8" width="1" height="1"/><rect x="4" y="9" width="1" height="1"/><rect x="10" y="9" width="1" height="1"/><rect x="12" y="9" width="1" height="1"/><rect x="14" y="9" width="2" height="1"/><rect x="17" y="9" width="3" height="1"/><rect x="23" y="9" width="3" height="1"/><rect x="27" y="9" width="6" height="1"/><rect x="34" y="9" width="1" height="1"/><rect x="40" y="9" width="1" height="1"/><rect x="4" y="10" width="7" height="1"/><rect x="12" y="10" width="1" height="1"/><rect x="14" y="10" width="1" height="1"/><rect x="16" y="10" width="1" height="1"/><rect x="18" y="10" width="1" height="1"/><rect x="20" y="10" width="1" height="1"/><rect x="22" y="10" width="1" height="1"/><rect x="24" y="10" width="1" height="1"/><rect x="26" y="10" width="1" height="1"/><rect x="28" y="10" width="1" height="1"/><rect x="30" y="10" width="1" height="1"/><rect x="32" y="10" width="1" height="1"/><rect x="34" y="10" width="7" height="1"/><rect x="13" y="11" width="1" height="1"/><rect x="15" y="11" width="1" height="1"/><rect x="18" y="11" width="1" height="1"/><rect x="21" y="11" width="3" height="1"/><rect x="25" y="11" width="1" height="1"/><rect x="30" y="11" width="1" height="1"/><rect x="7" y="12" width="1" height="1"/><rect x="10" y="12" width="1" height="1"/><rect x="14" y="12" width="1" height="1"/><rect x="19" y="12" width="1" height="1"/><rect x="24" y="12" width="2" height="1"/><rect x="31" y="12" width="2" height="1"/><rect x="35" y="12" width="3" height="1"/><rect x="39" y="12" width="2" height="1"/><rect x="6" y="13" width="3" height="1"/><rect x="11" y="13" width="1" height="1"/><rect x="17" y="13" width="1" height="1"/><rect x="22" y="13" width="2" height="1"/><rect x="25" y="13" width="4" height="1"/><rect x="30" y="13" width="3" height="1"/><rect x="35" y="13" width="1" height="1"/><rect x="37" y="13" width="1" height="1"/><rect x="39" y="13" width="2" height="1"/><rect x="7" y="14" width="2" height="1"/><rect x="10" y="14" width="5" height="1"/><rect x="16" y="14" width="5" height="1"/><rect x="22" y="14" width="1" height="1"/><rect x="24" y="14" width="1" height="1"/><rect x="27" y="14" width="1" height="1"/><rect x="31" y="14" width="1" height="1"/><rect x="34" y="14" width="1" height="1"/><rect x="36" y="14" width="3" height="1"/><rect x="40" y="14" width="1" height="1"/><rect x="4" y="15" width="1" height="1"/><rect x="8" y="15" width="1" height="1"/><rect x="12" y="15" width="1" height="1"/><rect x="14" y="15" width="1" height="1"/><rect x="17" y="15" width="7" height="1"/><rect x="25" y="15" width="2" height="1"/><rect x="29" y="15" width="1" height="1"/><rect x="32" y="15" width="1" height="1"/><rect x="35" y="15" width="2" height="1"/><rect x="39" y="15" width="2" height="1"/><rect x="4" y="16" width="3" height="1"/><rect x="8" y="16" width="1" height="1"/><rect x="10" y="16" width="1" height="1"/><rect x="12" y="16" width="1" height="1"/><rect x="16" y="16" width="1" height="1"/><rect x="18" y="16" width="1" height="1"/><rect x="22" y="16" width="1" height="1"/><rect x="25" y="16" width="1" height="1"/><rect x="28" y="16" width="2" height="1"/><rect x="31" y="16" width="4" height="1"/><rect x="37" y="16" width="1" height="1"/><rect x="40" y="16" width="1" height="1"/><rect x="5" y="17" width="5" height="1"/><rect x="11" y="17" width="3" height="1"/><rect x="16" y="17" width="1" height="1"/><rect x="18" y="17" width="2" height="1"/><rect x="22" y="17" width="1" height="1"/><rect x="24" y="17" width="1" height="1"/><rect x="27" y="17" width="4" height="1"/><rect x="34" y="17" width="2" height="1"/><rect x="37" y="17" width="1" height="1"/><rect x="39" y="17" width="2" height="1"/><rect x="4" y="18" width="3" height="1"/><rect x="8" y="18" width="1" height="1"/><rect x="10" y="18" width="1" height="1"/><rect x="18" y="18" width="1" height="1"/><rect x="23" y="18" width="8" height="1"/><rect x="33" y="18" width="1" height="1"/><rect x="35" y="18" width="2" height="1"/><rect x="38" y="18" width="1" height="1"/><rect x="40" y="18" width="1" height="1"/><rect x="5" y="19" width="2" height="1"/><rect x="9" y="19" width="1" height="1"/><rect x="13" y="19" width="1" height="1"/><rect x="15" y="19" width="2" height="1"/><rect x="19" y="19" width="1" height="1"/><rect x="21" y="19" width="3" height="1"/><rect x="25" y="19" width="2" height="1"/><rect x="29" y="19" width="1" height="1"/><rect x="36" y="19" width="1" height="1"/><rect x="40" y="19" width="1" height="1"/><rect x="4" y="20" width="1" height="1"/><rect x="6" y="20" width="1" height="1"/><rect x="9" y="20" width="4" height="1"/><rect x="15" y="20" width="1" height="1"/><rect x="17" y="20" width="2" height="1"/><rect x="21" y="20" width="1" height="1"/><rect x="23" y="20" width="1" height="1"/><rect x="33" y="20" width="3" height="1"/><rect x="37" y="20" width="2" height="1"/><rect x="40" y="20" width="1" height="1"/><rect x="4" y="21" width="4" height="1"/><rect x="12" y="21" width="6" height="1"/><rect x="21" y="21" width="1" height="1"/><rect x="24" y="21" width="2" height="1"/><rect x="28" y="21" width="1" height="1"/><rect x="30" y="21" width="1" height="1"/><rect x="32" y="21" width="3" height="1"/><rect x="36" y="21" width="1" height="1"/><rect x="38" y="21" width="1" height="1"/><rect x="40" y="21" width="1" height="1"/><rect x="10" y="22" width="3" height="1"/><rect x="15" y="22" width="2" height="1"/><rect x="20" y="22" width="2" height="1"/><rect x="27" y="22" width="1" height="1"/><rect x="29" y="22" width="1" height="1"/><rect x="33" y="22" width="1" height="1"/><rect x="36" y="22" width="2" height="1"/><rect x="39" y="22" width="2" height="1"/><rect x="5" y="23" width="2" height="1"/><rect x="8" y="23" width="2" height="1"/><rect x="12" y="23" width="1" height="1"/><rect x="17" y="23" width="2" height="1"/><rect x="21" y="23" width="1" height="1"/><rect x="25" y="23" width="1" height="1"/><rect x="28" y="23" width="1" height="1"/><rect x="30" y="23" width="3" height="1"/><rect x="35" y="23" width="2" height="1"/><rect x="38" y="23" width="1" height="1"/><rect x="40" y="23" width="1" height="1"/><rect x="5" y="24" width="3" height="1"/><rect x="9" y="24" width="3" height="1"/><rect x="16" y="24" width="1" height="1"/><rect x="19" y="24" width="1" height="1"/><rect x="21" y="24" width="1" height="1"/><rect x="23" y="24" width="1" height="1"/><rect x="27" y="24" width="1" height="1"/><rect x="29" y="24" width="8" height="1"/><rect x="39" y="24" width="2" height="1"/><rect x="4" y="25" width="1" height="1"/><rect x="6" y="25" width="2" height="1"/><rect x="11" y="25" width="8" height="1"/><rect x="20" y="25" width="1" height="1"/><rect x="25" y="25" width="2" height="1"/><rect x="28" y="25" width="1" height="1"/><rect x="33" y="25" width="2" height="1"/><rect x="38" y="25" width="3" height="1"/><rect x="4" y="26" width="3" height="1"/><rect x="8" y="26" width="3" height="1"/><rect x="12" y="26" width="1" height="1"/><rect x="14" y="26" width="1" height="1"/><rect x="17" y="26" width="2" height="1"/><rect x="22" y="26" width="2" height="1"/><rect x="25" y="26" width="1" height="1"/><rect x="27" y="26" width="1" height="1"/><rect x="33" y="26" width="1" height="1"/><rect x="35" y="26" width="2" height="1"/><rect x="38" y="26" width="3" height="1"/><rect x="6" y="27" width="4" height="1"/><rect x="12" y="27" width="4" height="1"/><rect x="17" y="27" width="1" height="1"/><rect x="19" y="27" width="4" height="1"/><rect x="24" y="27" width="3" height="1"/><rect x="28" y="27" width="1" height="1"/><rect x="30" y="27" width="1" height="1"/><rect x="34" y="27" width="1" height="1"/><rect x="36" y="27" width="1" height="1"/><rect x="39" y="27" width="1" height="1"/><rect x="4" y="28" width="3" height="1"/><rect x="10" y="28" width="1" height="1"/><rect x="12" y="28" width="1" height="1"/><rect x="14" y="28" width="2" height="1"/><rect x="18" y="28" width="5" height="1"/><rect x="25" y="28" width="1" height="1"/><rect x="27" y="28" width="2" height="1"/><rect x="31" y="28" width="1" height="1"/><rect x="33" y="28" width="1" height="1"/><rect x="36" y="28" width="1" height="1"/><rect x="40" y="28" width="1" height="1"/><rect x="5" y="29" width="2" height="1"/><rect x="9" y="29" width="1" height="1"/><rect x="11" y="29" width="1" height="1"/><rect x="15" y="29" width="1" height="1"/><rect x="18" y="29" width="4" height="1"/><rect x="25" y="29" width="1" height="1"/><rect x="27" y="29" width="2" height="1"/><rect x="31" y="29" width="3" height="1"/><rect x="35" y="29" width="2" height="1"/><rect x="38" y="29" width="3" height="1"/><rect x="4" y="30" width="1" height="1"/><rect x="6" y="30" width="1" height="1"/><rect x="8" y="30" width="3" height="1"/><rect x="12" y="30" width="4" height="1"/><rect x="18" y="30" width="2" height="1"/><rect x="22" y="30" width="1" height="1"/><rect x="25" y="30" width="2" height="1"/><rect x="28" y="30" width="1" height="1"/><rect x="33" y="30" width="2" height="1"/><rect x="36" y="30" width="1" height="1"/><rect x="38" y="30" width="1" height="1"/><rect x="40" y="30" width="1" height="1"/><rect x="5" y="31" width="1" height="1"/><rect x="7" y="31" width="1" height="1"/><rect x="9" y="31" width="1" height="1"/><rect x="11" y="31" width="2" height="1"/><rect x="14" y="31" width="1" height="1"/><rect x="16" y="31" width="2" height="1"/><rect x="19" y="31" width="1" height="1"/><rect x="21" y="31" width="2" height="1"/><rect x="26" y="31" width="1" height="1"/><rect x="28" y="31" width="2" height="1"/><rect x="31" y="31" width="1" height="1"/><rect x="34" y="31" width="1" height="1"/><rect x="36" y="31" width="2" height="1"/><rect x="39" y="31" width="2" height="1"/><rect x="4" y="32" width="4" height="1"/><rect x="9" y="32" width="3" height="1"/><rect x="18" y="32" width="1" height="1"/><rect x="22" y="32" width="1" height="1"/><rect x="24" y="32" width="1" height="1"/><rect x="26" y="32" width="3" height="1"/><rect x="32" y="32" width="5" height="1"/><rect x="39" y="32" width="1" height="1"/><rect x="12" y="33" width="2" height="1"/><rect x="16" y="33" width="1" height="1"/><rect x="19" y="33" width="2" height="1"/><rect x="24" y="33" width="2" height="1"/><rect x="27" y="33" width="2" height="1"/><rect x="31" y="33" width="2" height="1"/><rect x="36" y="33" width="1" height="1"/><rect x="40" y="33" width="1" height="1"/><rect x="4" y="34" width="7" height="1"/><rect x="13" y="34" width="5" height="1"/><rect x="20" y="34" width="2" height="1"/><rect x="24" y="34" width="2" height="1"/><rect x="28" y="34" width="1" height="1"/><rect x="30" y="34" width="3" height="1"/><rect x="34" y="34" width="1" height="1"/><rect x="36" y="34" width="1" height="1"/><rect x="38" y="34" width="3" height="1"/><rect x="4" y="35" width="1" height="1"/><rect x="10" y="35" width="1" height="1"/><rect x="14" y="35" width="2" height="1"/><rect x="17" y="35" width="1" height="1"/><rect x="19" y="35" width="3" height="1"/><rect x="25" y="35" width="1" height="1"/><rect x="27" y="35" width="2" height="1"/><rect x="30" y="35" width="3" height="1"/><rect x="36" y="35" width="1" height="1"/><rect x="38" y="35" width="2" height="1"/><rect x="4" y="36" width="1" height="1"/><rect x="6" y="36" width="3" height="1"/><rect x="10" y="36" width="1" height="1"/><rect x="13" y="36" width="1" height="1"/><rect x="16" y="36" width="4" height="1"/><rect x="21" y="36" width="1" height="1"/><rect x="25" y="36" width="1" height="1"/><rect x="27" y="36" width="1" height="1"/><rect x="29" y="36" width="2" height="1"/><rect x="32" y="36" width="6" height="1"/><rect x="40" y="36" width="1" height="1"/><rect x="4" y="37" width="1" height="1"/><rect x="6" y="37" width="3" height="1"/><rect x="10" y="37" width="1" height="1"/><rect x="12" y="37" width="3" height="1"/><rect x="18" y="37" width="1" height="1"/><rect x="20" y="37" width="1" height="1"/><rect x="23" y="37" width="1" height="1"/><rect x="25" y="37" width="3" height="1"/><rect x="32" y="37" width="2" height="1"/><rect x="35" y="37" width="2" height="1"/><rect x="38" y="37" width="3" height="1"/><rect x="4" y="38" width="1" height="1"/><rect x="6" y="38" width="3" height="1"/><rect x="10" y="38" width="1" height="1"/><rect x="13" y="38" width="1" height="1"/><rect x="16" y="38" width="1" height="1"/><rect x="19" y="38" width="5" height="1"/><rect x="31" y="38" width="3" height="1"/><rect x="36" y="38" width="1" height="1"/><rect x="40" y="38" width="1" height="1"/><rect x="4" y="39" width="1" height="1"/><rect x="10" y="39" width="1" height="1"/><rect x="16" y="39" width="1" height="1"/><rect x="18" y="39" width="2" height="1"/><rect x="23" y="39" width="1" height="1"/><rect x="25" y="39" width="1" height="1"/><rect x="29" y="39" width="4" height="1"/><rect x="4" y="40" width="7" height="1"/><rect x="14" y="40" width="1" height="1"/><rect x="18" y="40" width="4" height="1"/><rect x="25" y="40" width="2" height="1"/><rect x="29" y="40" width="1" height="1"/><rect x="31" y="40" width="3" height="1"/><rect x="36" y="40" width="1" height="1"/><rect x="39" y="40" width="2" height="1"/></g></svg>